<?xml version="1.0" standalone="no"?>
<!DOCTYPE svg PUBLIC "-//W3C//DTD SVG 20010904//EN"
 "http://www.w3.org/TR/2001/REC-SVG-20010904/DTD/svg10.dtd">
<svg version="1.0" xmlns="http://www.w3.org/2000/svg"
 width="854.000000pt" height="843.000000pt" viewBox="0 0 854.000000 843.000000"
 preserveAspectRatio="xMidYMid meet">
<metadata>
Created by potrace 1.16, written by Peter Selinger 2001-2019
</metadata>
<g transform="translate(0.000000,843.000000) scale(0.100000,-0.100000)"
fill="#000000" stroke="none">
<path d="M3985 8113 c-27 -2 -111 -10 -185 -19 -1550 -179 -2861 -1242 -3360
-2724 -232 -687 -271 -1427 -115 -2155 286 -1329 1271 -2456 2552 -2921 172
-62 260 -59 336 14 53 51 56 83 50 507 -6 346 -8 385 -22 381 -60 -18 -218
-38 -342 -43 -347 -14 -609 68 -811 256 -83 76 -142 163 -198 291 -121 275
-248 444 -420 556 -41 27 -97 70 -123 96 -40 40 -48 53 -45 80 5 48 42 70 131
76 184 11 392 -85 547 -255 29 -32 87 -110 128 -173 133 -203 275 -323 457
-387 76 -27 89 -28 250 -27 151 0 180 3 265 26 114 32 189 63 194 80 2 7 11
49 21 93 31 144 96 278 187 387 l39 47 -33 5 c-588 90 -885 196 -1173 421
-332 259 -529 643 -601 1175 -25 179 -25 550 -1 680 57 305 142 483 371 777
18 23 18 25 -8 116 -37 133 -47 214 -47 372 1 170 25 324 77 488 l37 116 44 7
c93 14 299 -27 465 -92 134 -52 326 -152 475 -245 l128 -81 50 11 c443 98 715
128 1065 117 294 -9 515 -37 769 -97 68 -16 129 -29 136 -29 8 0 46 22 87 48
241 159 532 295 731 342 101 23 214 35 261 26 31 -6 37 -12 56 -64 115 -305
130 -684 39 -956 l-20 -59 29 -31 c51 -55 138 -178 190 -271 91 -160 157 -365
183 -560 15 -120 6 -525 -16 -665 -100 -648 -387 -1066 -898 -1310 -213 -102
-444 -168 -737 -211 -80 -12 -151 -23 -158 -25 -9 -3 5 -25 38 -61 66 -74 143
-229 177 -358 l27 -100 6 -700 c5 -662 6 -702 24 -738 30 -60 85 -91 171 -95
66 -4 82 0 207 47 880 329 1612 945 2083 1751 674 1153 732 2575 154 3779 -90
187 -150 292 -274 481 -685 1039 -1799 1697 -3048 1799 -116 10 -479 12 -602
4z"/>
<path d="M2176 1804 c-49 -49 44 -156 109 -126 47 22 26 95 -35 127 -37 19
-55 19 -74 -1z"/>
<path d="M2446 1621 c-49 -55 62 -129 135 -91 34 19 22 73 -22 95 -40 21 -92
19 -113 -4z"/>
<path d="M3103 1610 c-86 -52 6 -132 97 -85 49 25 50 78 3 96 -37 14 -65 11
-100 -11z"/>
<path d="M2784 1567 c-70 -60 46 -134 120 -76 14 11 26 29 26 39 0 27 -47 60
-86 60 -20 0 -43 -9 -60 -23z"/>
</g>
</svg>
