<svg width="16" height="14" viewBox="0 0 16 14" fill="none" xmlns="http://www.w3.org/2000/svg">
<path d="M8.00364 2.94737C10.0118 2.94737 11.6417 4.59789 11.6417 6.63158C11.6417 7.11053 11.5471 7.56 11.3797 7.98L13.5043 10.1316C14.603 9.20316 15.4688 8.00211 16 6.63158C14.7412 3.39684 11.6344 1.10526 7.99636 1.10526C6.97772 1.10526 6.00273 1.28947 5.1005 1.62105L6.67212 3.21263C7.08686 3.04316 7.5307 2.94737 8.00364 2.94737ZM0.727603 0.935789L2.38654 2.61579L2.72124 2.95474C1.51342 3.90526 0.567531 5.17263 0 6.63158C1.25875 9.86632 4.36562 12.1579 8.00364 12.1579C9.13142 12.1579 10.2083 11.9368 11.1905 11.5389L11.4961 11.8484L13.628 14L14.5521 13.0642L1.65166 0L0.727603 0.935789ZM4.75125 5.01053L5.87904 6.15263C5.84266 6.30737 5.82083 6.46947 5.82083 6.63158C5.82083 7.85474 6.79582 8.84211 8.00364 8.84211C8.16371 8.84211 8.32378 8.82 8.47658 8.78316L9.60437 9.92526C9.11687 10.1684 8.57844 10.3158 8.00364 10.3158C5.99545 10.3158 4.36562 8.66526 4.36562 6.63158C4.36562 6.04947 4.51114 5.50421 4.75125 5.01053V5.01053ZM7.88722 4.43579L10.1792 6.75684L10.1937 6.63895C10.1937 5.41579 9.21874 4.42842 8.01091 4.42842L7.88722 4.43579Z" fill="#959698"/>
</svg>
