<svg width="14" height="12" viewBox="0 0 14 12" fill="none" xmlns="http://www.w3.org/2000/svg">
<path fill-rule="evenodd" clip-rule="evenodd" d="M11.3438 3.34375C11.8854 3.34375 12.3542 3.53646 12.75 3.92188C13.1458 4.30729 13.3438 4.78125 13.3438 5.34375V9.34375H10.6562V12H2.65625V9.34375H0V5.34375C0 4.78125 0.192706 4.30729 0.578125 3.92188C0.963544 3.53646 1.4375 3.34375 2 3.34375H11.3438ZM9.34375 10.6562V7.34375H4V10.6562H9.34375ZM11.3281 6C11.5052 6 11.6615 5.93229 11.7969 5.79688C11.9323 5.66146 12 5.50521 12 5.32812C12 5.15104 11.9323 4.99479 11.7969 4.85938C11.6615 4.72396 11.5052 4.65625 11.3281 4.65625C11.151 4.65625 10.9948 4.72396 10.8594 4.85938C10.724 4.99479 10.6562 5.15104 10.6562 5.32812C10.6562 5.50521 10.724 5.66146 10.8594 5.79688C10.9948 5.93229 11.151 6 11.3281 6ZM10.6562 0V2.65625H2.65625V0H10.6562Z" fill="#4B74FF"/>
</svg>
