<svg width="20" height="19" viewBox="0 0 20 19" fill="none" xmlns="http://www.w3.org/2000/svg">
<path fill-rule="evenodd" clip-rule="evenodd" d="M17.1138 10.4612L19.1335 11.9589C19.3429 12.1301 19.3878 12.3298 19.2681 12.558L17.3382 15.7246C17.2185 15.9528 17.0241 16.0098 16.7548 15.8957L14.376 14.9971C13.8375 15.368 13.2989 15.6675 12.7603 15.8957L12.4012 18.292C12.3713 18.5488 12.2068 18.6772 11.9075 18.6772H8.09261C7.82332 18.6772 7.65876 18.5488 7.59892 18.292L7.23986 15.8957C6.67136 15.6675 6.13279 15.368 5.62413 14.9971L3.2454 15.8957C2.97611 15.9813 2.78162 15.9242 2.66194 15.7246L0.732031 12.558C0.612346 12.3298 0.657227 12.1301 0.866676 11.9589L2.88635 10.4612C2.85643 10.1189 2.84147 9.81933 2.84147 9.56258C2.84147 9.30583 2.85643 9.00629 2.88635 8.66396L0.866676 7.16626C0.657227 6.99509 0.612346 6.7954 0.732031 6.56718L2.66194 3.40061C2.81155 3.17239 3.00603 3.11533 3.2454 3.22944L5.62413 4.12806C6.16271 3.7572 6.70128 3.45767 7.23986 3.22944L7.59892 0.833121C7.65876 0.576371 7.82332 0.447998 8.09261 0.447998H11.9075C12.2068 0.447998 12.3713 0.576371 12.4012 0.833121L12.7603 3.22944C13.3288 3.45767 13.8674 3.7572 14.376 4.12806L16.7548 3.22944C17.0241 3.14386 17.2185 3.20091 17.3382 3.40061L19.2681 6.56718C19.3878 6.7954 19.3429 6.99509 19.1335 7.16626L17.1138 8.66396C17.1737 9.00629 17.2036 9.30583 17.2036 9.56258C17.2036 9.81933 17.1737 10.1189 17.1138 10.4612ZM10.0001 12.7719C10.9127 12.7719 11.6981 12.4581 12.3564 11.8305C13.0146 11.2029 13.3438 10.4469 13.3438 9.56258C13.3438 8.67822 13.0146 7.92225 12.3564 7.29464C11.6981 6.66703 10.9127 6.35322 10.0001 6.35322C9.08748 6.35322 8.30206 6.66703 7.6438 7.29464C6.98553 7.92225 6.6564 8.67822 6.6564 9.56258C6.6564 10.4469 6.98553 11.2029 7.6438 11.8305C8.30206 12.4581 9.08748 12.7719 10.0001 12.7719Z" fill="#5F6164"/>
</svg>
