<svg width="16" height="16" viewBox="0 0 16 16" fill="none" xmlns="http://www.w3.org/2000/svg">
<path fill-rule="evenodd" clip-rule="evenodd" d="M8.00001 8C6.88955 8 5.94332 7.61014 5.1613 6.83041C4.37928 6.05068 3.98828 5.10722 3.98828 4C3.98828 2.89278 4.37928 1.94932 5.1613 1.16959C5.94332 0.38986 6.88955 0 8.00001 0C9.11048 0 10.0567 0.38986 10.8387 1.16959C11.6207 1.94932 12.0117 2.89278 12.0117 4C12.0117 5.10722 11.6207 6.05068 10.8387 6.83041C10.0567 7.61014 9.11048 8 8.00001 8ZM8 10.0122C8.98534 10.0122 10.0723 10.1525 11.261 10.4332C12.4497 10.7139 13.5367 11.1739 14.522 11.8133C15.5073 12.4527 16 13.1778 16 13.9888V16.0005H0V13.9888C0 13.1778 0.492664 12.4527 1.47801 11.8133C2.46335 11.1739 3.55034 10.7139 4.739 10.4332C5.92767 10.1525 7.01466 10.0122 8 10.0122Z" fill="#5F6164"/>
</svg>
