<svg width="11" height="13" viewBox="0 0 11 13" fill="none" xmlns="http://www.w3.org/2000/svg">
<path fill-rule="evenodd" clip-rule="evenodd" d="M8.49763 6.67868V9.71964H5.45667V6.67868H8.49763ZM7.87239 0H9.09446V1.22207H9.69128C10.0323 1.22207 10.3213 1.34048 10.5581 1.57732C10.7949 1.81416 10.9133 2.10309 10.9133 2.44414V10.9133C10.9133 11.2544 10.7949 11.5433 10.5581 11.7802C10.3213 12.017 10.0323 12.1354 9.69128 12.1354H1.22207C0.881024 12.1354 0.592088 12.017 0.355252 11.7802C0.118416 11.5433 0 11.2544 0 10.9133V2.44414C0 2.10309 0.118416 1.81416 0.355252 1.57732C0.592088 1.34048 0.881024 1.22207 1.22207 1.22207H1.81889V0H3.04096V1.22207H7.87239V0ZM9.69131 10.9134V4.26303H1.2221V10.9134H9.69131Z" fill="#959698"/>
</svg>
