<svg width="17" height="11" viewBox="0 0 17 11" fill="none" xmlns="http://www.w3.org/2000/svg">
<path d="M8.06667 0C4.4 0 1.26867 2.28067 0 5.5C1.26867 8.71933 4.4 11 8.06667 11C11.7333 11 14.8647 8.71933 16.1333 5.5C14.8647 2.28067 11.7333 0 8.06667 0ZM8.06667 9.16667C6.04267 9.16667 4.4 7.524 4.4 5.5C4.4 3.476 6.04267 1.83333 8.06667 1.83333C10.0907 1.83333 11.7333 3.476 11.7333 5.5C11.7333 7.524 10.0907 9.16667 8.06667 9.16667ZM8.06667 3.3C6.84933 3.3 5.86667 4.28267 5.86667 5.5C5.86667 6.71733 6.84933 7.7 8.06667 7.7C9.284 7.7 10.2667 6.71733 10.2667 5.5C10.2667 4.28267 9.284 3.3 8.06667 3.3Z" fill="#35C029"/>
</svg>
