<svg width="18" height="22" viewBox="0 0 18 22" fill="none" xmlns="http://www.w3.org/2000/svg">
<path d="M11 22C11 14.6516 11 7.34287 11 0C11.1194 0.0363018 11.2189 0.0627031 11.3153 0.0957048C13.4566 0.844842 15.5968 1.59728 17.7402 2.33872C17.9424 2.40912 17.999 2.50483 17.999 2.72484C17.9927 8.24051 17.9916 13.7573 18 19.273C18 19.5106 17.9235 19.5942 17.7182 19.6657C15.556 20.4126 13.3969 21.1717 11.2368 21.9274C11.1634 21.9527 11.089 21.9725 11 22ZM12.8605 11.005C12.8605 10.588 12.541 10.2525 12.1482 10.2602C11.771 10.2668 11.4599 10.6012 11.4567 11.0027C11.4536 11.3889 11.7826 11.7332 12.1576 11.7354C12.5316 11.7376 12.8605 11.3966 12.8605 11.005Z" fill="#5F6164"/>
<path d="M8.01045 18.7354C8.34666 18.7354 8.66379 18.7354 8.99818 18.7354C8.99818 19.1596 8.99818 19.5688 8.99818 20C8.33394 20 7.67333 20 7 20C7 14.0039 7 8.01352 7 2C7.66152 2 8.32213 2 9 2C9 2.40801 9 2.81718 9 3.25301C8.67015 3.25301 8.34848 3.25301 8.01045 3.25301C8.01045 8.41806 8.01045 13.5576 8.01045 18.7354Z" fill="#5F6164"/>
<path d="M5.03063e-05 11.7165C0 10.5 5.03063e-05 10.7862 5.03063e-05 10.2978C2.4679 10.2978 0.93012 10.2978 3.39234 10.2978C3.40474 10.2692 3.41715 10.2418 3.42956 10.2132C3.01336 9.80703 2.59716 9.40083 2.20014 9.0137C2.5622 8.63014 2.87124 8.30256 3.1566 8C4.09502 8.99226 5.06163 10.0119 6.00005 11.0042C5.07404 11.9809 4.10855 13.0006 3.16112 14C2.88929 13.7105 2.5746 13.377 2.24751 13.0304C2.61972 12.6409 3.02351 12.2168 3.42843 11.7927C3.41828 11.7677 3.40925 11.7415 3.3991 11.7165C0.938016 11.7165 2.47693 11.7165 5.03063e-05 11.7165Z" fill="#5F6164"/>
</svg>
