<svg width="17" height="14" viewBox="0 0 17 14" fill="none" xmlns="http://www.w3.org/2000/svg">
<path d="M15.3 1.75H8.5L6.8 0H1.7C0.765 0 0.00849999 0.7875 0.00849999 1.75L0 12.25C0 13.2125 0.765 14 1.7 14H15.3C16.235 14 17 13.2125 17 12.25V3.5C17 2.5375 16.235 1.75 15.3 1.75ZM11.05 4.375C11.985 4.375 12.75 5.1625 12.75 6.125C12.75 7.0875 11.985 7.875 11.05 7.875C10.115 7.875 9.35 7.0875 9.35 6.125C9.35 5.1625 10.115 4.375 11.05 4.375ZM14.45 11.375H7.65V10.5C7.65 9.33625 9.9195 8.75 11.05 8.75C12.1805 8.75 14.45 9.33625 14.45 10.5V11.375Z" fill="#5A5B5E"/>
</svg>
