<?xml version="1.0" standalone="no"?>
<!DOCTYPE svg PUBLIC "-//W3C//DTD SVG 20010904//EN"
 "http://www.w3.org/TR/2001/REC-SVG-20010904/DTD/svg10.dtd">
<svg version="1.0" xmlns="http://www.w3.org/2000/svg"
 width="403.000000pt" height="384.000000pt" viewBox="0 0 403.000000 384.000000"
 preserveAspectRatio="xMidYMid meet">
<metadata>
Created by potrace 1.15, written by Peter Selinger 2001-2017
</metadata>
<g transform="translate(0.000000,384.000000) scale(0.100000,-0.100000)"
fill="#000000" stroke="none">
<path d="M3072 3753 c-5 -10 -15 -57 -22 -105 -13 -95 -11 -91 -90 -135 l-55
-31 -100 38 c-55 21 -105 36 -111 33 -22 -8 -176 -272 -169 -291 3 -9 41 -43
85 -74 l80 -58 0 -74 0 -74 -80 -59 c-44 -32 -82 -66 -85 -75 -4 -10 25 -68
77 -152 62 -102 88 -136 103 -136 11 0 61 16 112 35 l92 34 57 -34 c32 -19 61
-35 65 -35 3 0 12 -43 19 -96 7 -54 19 -102 27 -110 20 -19 335 -21 351 -1 6
7 16 55 24 107 l13 94 66 38 65 37 92 -34 c51 -19 101 -35 111 -35 14 0 41 36
97 128 43 70 80 136 82 148 3 17 -14 34 -82 85 l-86 63 0 72 0 73 85 62 c48
35 85 69 85 78 0 9 -36 76 -81 149 -64 105 -85 132 -102 132 -12 0 -62 -15
-111 -34 l-90 -34 -60 33 c-33 19 -63 40 -66 47 -4 7 -13 51 -20 98 -6 47 -16
91 -22 98 -8 9 -56 12 -179 12 -150 0 -169 -2 -177 -17z m257 -459 c63 -18
136 -81 162 -139 24 -53 24 -147 0 -200 -10 -22 -39 -59 -64 -82 -131 -120
-339 -79 -413 82 -65 137 14 301 164 341 63 17 89 17 151 -2z"/>
<path d="M1650 3580 c-371 -29 -743 -189 -1030 -443 -529 -469 -727 -1200
-508 -1886 93 -293 299 -603 532 -798 489 -411 1130 -536 1724 -338 600 201
1054 710 1182 1326 34 167 48 366 34 487 l-7 52 -176 0 -177 0 8 -77 c24 -225
-36 -516 -153 -745 -66 -128 -194 -308 -219 -308 -3 0 -14 17 -24 37 -45 94
-134 166 -234 189 -31 8 -103 14 -159 14 l-103 0 0 283 c0 253 -2 286 -19 322
-21 46 -54 79 -94 94 -19 7 -214 11 -583 11 l-554 0 0 185 0 185 209 0 c199 0
209 1 241 23 73 49 75 55 78 292 l3 213 222 4 c182 4 231 8 270 22 70 27 158
111 193 188 l29 63 3 266 3 267 -108 26 c-190 45 -389 61 -583 46z m-803
-1882 l421 -423 5 -130 c5 -164 26 -225 101 -300 62 -62 126 -94 201 -102 l55
-6 0 -173 0 -174 -27 0 c-48 0 -234 49 -328 87 -324 129 -591 376 -749 691
-115 230 -167 494 -146 740 11 117 28 212 38 212 4 0 197 -190 429 -422z"/>
</g>
</svg>
