<svg width="16" height="16" viewBox="0 0 16 16" fill="none" xmlns="http://www.w3.org/2000/svg">
<path d="M15.7674 14.6314L14.6315 15.7674C14.4816 15.9164 14.2788 16 14.0675 16C13.8562 16 13.6534 15.9164 13.5036 15.7674L4.00032 6.27975C3.74019 6.35511 3.47117 6.39547 3.20038 6.39975C2.69106 6.39938 2.18919 6.27744 1.73649 6.04405C1.28379 5.81066 0.893335 5.47258 0.597596 5.0579C0.301858 4.64323 0.109377 4.16394 0.0361565 3.65989C-0.0370639 3.15585 0.0110919 2.6416 0.17662 2.15991L2.20846 4.19183L2.63243 3.76785L3.76834 2.6319L4.1923 2.20791L2.16046 0.175993C2.64213 0.0104582 3.15636 -0.0376995 3.66038 0.0355237C4.16441 0.108747 4.64368 0.301236 5.05834 0.596986C5.47299 0.892736 5.81107 1.2832 6.04445 1.73592C6.27782 2.18864 6.39976 2.69054 6.40013 3.19987C6.39585 3.47068 6.3555 3.7397 6.28014 3.99984L15.7674 13.5035C15.9164 13.6533 16 13.8561 16 14.0674C16 14.2788 15.9164 14.4815 15.7674 14.6314ZM0.232616 13.5035C0.0836268 13.6533 0 13.8561 0 14.0674C0 14.2788 0.0836268 14.4815 0.232616 14.6314L1.36853 15.7674C1.5184 15.9164 1.72115 16 1.93248 16C2.14381 16 2.34656 15.9164 2.49644 15.7674L6.87209 11.3995L4.60827 9.13564L0.232616 13.5035ZM14.3995 0L11.1997 1.59994V3.19987L9.46388 4.9358L11.0638 6.53574L12.7996 4.79981H14.3995L15.9994 1.59994L14.3995 0Z" fill="#5A5B5E"/>
</svg>
